<mxfile host="app.diagrams.net" modified="2024-06-20T08:34:31.760Z" agent="Mozilla/5.0 (Windows NT 10.0; Win64; x64) AppleWebKit/537.36 (KHTML, like Gecko) Chrome/126.0.0.0 Safari/537.36" etag="MpSxCeQutUh0XNQekbU-" version="24.5.5" type="github">
  <diagram name="Page-1" id="C2YhBaI1L5phuChUSeaU">
    <mxGraphModel dx="880" dy="508" grid="1" gridSize="10" guides="1" tooltips="1" connect="1" arrows="1" fold="1" page="1" pageScale="1" pageWidth="827" pageHeight="1169" math="0" shadow="0">
      <root>
        <mxCell id="0" />
        <mxCell id="1" parent="0" />
        <mxCell id="-_HJGpFa1Wv5-3IW6Odz-4" value="" style="ellipse;shape=cloud;whiteSpace=wrap;html=1;movable=1;resizable=1;rotatable=1;deletable=1;editable=1;locked=0;connectable=1;" vertex="1" parent="1">
          <mxGeometry x="60" y="260" width="160" height="110" as="geometry" />
        </mxCell>
        <mxCell id="-_HJGpFa1Wv5-3IW6Odz-1" value="" style="outlineConnect=0;dashed=0;verticalLabelPosition=bottom;verticalAlign=top;align=center;html=1;shape=mxgraph.aws3.router;fillColor=#F58534;gradientColor=none;" vertex="1" parent="1">
          <mxGeometry x="105.5" y="80" width="69" height="72" as="geometry" />
        </mxCell>
        <mxCell id="-_HJGpFa1Wv5-3IW6Odz-2" value="" style="sketch=0;points=[[0.015,0.015,0],[0.985,0.015,0],[0.985,0.985,0],[0.015,0.985,0],[0.25,0,0],[0.5,0,0],[0.75,0,0],[1,0.25,0],[1,0.5,0],[1,0.75,0],[0.75,1,0],[0.5,1,0],[0.25,1,0],[0,0.75,0],[0,0.5,0],[0,0.25,0]];verticalLabelPosition=bottom;html=1;verticalAlign=top;aspect=fixed;align=center;pointerEvents=1;shape=mxgraph.cisco19.rect;prIcon=workgroup_switch;fillColor=#FAFAFA;strokeColor=#005073;" vertex="1" parent="1">
          <mxGeometry x="190" y="170" width="50" height="50" as="geometry" />
        </mxCell>
        <mxCell id="-_HJGpFa1Wv5-3IW6Odz-5" value="&lt;p style=&quot;line-height: 120%;&quot;&gt;&lt;br&gt;&lt;/p&gt;" style="ellipse;shape=cloud;whiteSpace=wrap;html=1;movable=1;resizable=1;rotatable=1;deletable=1;editable=1;locked=0;connectable=1;" vertex="1" parent="1">
          <mxGeometry x="250" y="320" width="160" height="110" as="geometry" />
        </mxCell>
        <mxCell id="-_HJGpFa1Wv5-3IW6Odz-6" value="" style="ellipse;shape=cloud;whiteSpace=wrap;html=1;movable=1;resizable=1;rotatable=1;deletable=1;editable=1;locked=0;connectable=1;" vertex="1" parent="1">
          <mxGeometry x="380" y="210" width="160" height="110" as="geometry" />
        </mxCell>
        <mxCell id="-_HJGpFa1Wv5-3IW6Odz-8" value="VLAN CCTV 50" style="text;strokeColor=none;align=center;fillColor=none;html=1;verticalAlign=middle;whiteSpace=wrap;rounded=0;" vertex="1" parent="1">
          <mxGeometry x="275" y="440" width="110" height="30" as="geometry" />
        </mxCell>
        <mxCell id="-_HJGpFa1Wv5-3IW6Odz-9" value="VLAN VOIP 60" style="text;strokeColor=none;align=center;fillColor=none;html=1;verticalAlign=middle;whiteSpace=wrap;rounded=0;" vertex="1" parent="1">
          <mxGeometry x="414" y="320" width="110" height="30" as="geometry" />
        </mxCell>
        <mxCell id="-_HJGpFa1Wv5-3IW6Odz-10" value="VLAN DATA 40" style="text;strokeColor=none;align=center;fillColor=none;html=1;verticalAlign=middle;whiteSpace=wrap;rounded=0;" vertex="1" parent="1">
          <mxGeometry x="85" y="370" width="110" height="30" as="geometry" />
        </mxCell>
        <mxCell id="-_HJGpFa1Wv5-3IW6Odz-11" value="" style="image;aspect=fixed;perimeter=ellipsePerimeter;html=1;align=center;shadow=0;dashed=0;spacingTop=3;image=img/lib/active_directory/database_server.svg;" vertex="1" parent="1">
          <mxGeometry x="108" y="290" width="41" height="50" as="geometry" />
        </mxCell>
        <mxCell id="-_HJGpFa1Wv5-3IW6Odz-12" value="" style="image;points=[];aspect=fixed;html=1;align=center;shadow=0;dashed=0;image=img/lib/allied_telesis/security/Surveillance_Camera_Ceiling.svg;" vertex="1" parent="1">
          <mxGeometry x="330" y="364.6" width="37.2" height="35.4" as="geometry" />
        </mxCell>
        <mxCell id="-_HJGpFa1Wv5-3IW6Odz-20" value="" style="shape=mxgraph.signs.tech.telephone_3;html=1;pointerEvents=1;fillColor=#000000;strokeColor=none;verticalLabelPosition=bottom;verticalAlign=top;align=center;" vertex="1" parent="1">
          <mxGeometry x="440" y="239.5" width="34" height="51" as="geometry" />
        </mxCell>
        <mxCell id="-_HJGpFa1Wv5-3IW6Odz-21" value="" style="edgeStyle=none;rounded=0;orthogonalLoop=1;jettySize=auto;html=1;exitX=0.015;exitY=0.985;exitDx=0;exitDy=0;exitPerimeter=0;entryX=0.625;entryY=0.2;entryDx=0;entryDy=0;entryPerimeter=0;verticalAlign=middle;horizontal=1;endArrow=none;endFill=0;" edge="1" parent="1" source="-_HJGpFa1Wv5-3IW6Odz-2" target="-_HJGpFa1Wv5-3IW6Odz-4">
          <mxGeometry relative="1" as="geometry" />
        </mxCell>
        <mxCell id="-_HJGpFa1Wv5-3IW6Odz-22" value="" style="edgeStyle=none;rounded=0;orthogonalLoop=1;jettySize=auto;html=1;exitX=0.75;exitY=1;exitDx=0;exitDy=0;exitPerimeter=0;entryX=0.4;entryY=0.1;entryDx=0;entryDy=0;entryPerimeter=0;verticalAlign=middle;horizontal=1;endArrow=none;endFill=0;" edge="1" parent="1" source="-_HJGpFa1Wv5-3IW6Odz-2" target="-_HJGpFa1Wv5-3IW6Odz-5">
          <mxGeometry relative="1" as="geometry">
            <mxPoint x="201" y="229" as="sourcePoint" />
            <mxPoint x="170" y="292" as="targetPoint" />
          </mxGeometry>
        </mxCell>
        <mxCell id="-_HJGpFa1Wv5-3IW6Odz-23" value="" style="edgeStyle=none;rounded=0;orthogonalLoop=1;jettySize=auto;html=1;exitX=1;exitY=0.5;exitDx=0;exitDy=0;exitPerimeter=0;verticalAlign=middle;horizontal=1;endArrow=none;endFill=0;entryX=0.07;entryY=0.4;entryDx=0;entryDy=0;entryPerimeter=0;" edge="1" parent="1" source="-_HJGpFa1Wv5-3IW6Odz-2" target="-_HJGpFa1Wv5-3IW6Odz-6">
          <mxGeometry relative="1" as="geometry">
            <mxPoint x="211" y="239" as="sourcePoint" />
            <mxPoint x="180" y="302" as="targetPoint" />
          </mxGeometry>
        </mxCell>
        <mxCell id="-_HJGpFa1Wv5-3IW6Odz-24" value="" style="edgeStyle=none;rounded=0;orthogonalLoop=1;jettySize=auto;html=1;exitX=0.855;exitY=0.855;exitDx=0;exitDy=0;exitPerimeter=0;entryX=0.015;entryY=0.015;entryDx=0;entryDy=0;entryPerimeter=0;verticalAlign=middle;horizontal=1;endArrow=none;endFill=0;" edge="1" parent="1" source="-_HJGpFa1Wv5-3IW6Odz-1" target="-_HJGpFa1Wv5-3IW6Odz-2">
          <mxGeometry relative="1" as="geometry">
            <mxPoint x="221" y="249" as="sourcePoint" />
            <mxPoint x="190" y="312" as="targetPoint" />
          </mxGeometry>
        </mxCell>
        <mxCell id="-_HJGpFa1Wv5-3IW6Odz-25" value="" style="image;aspect=fixed;perimeter=ellipsePerimeter;html=1;align=center;shadow=0;dashed=0;spacingTop=3;image=img/lib/active_directory/internet_globe.svg;" vertex="1" parent="1">
          <mxGeometry x="20" width="50" height="50" as="geometry" />
        </mxCell>
        <mxCell id="-_HJGpFa1Wv5-3IW6Odz-26" value="" style="edgeStyle=none;rounded=0;orthogonalLoop=1;jettySize=auto;html=1;exitX=1;exitY=1;exitDx=0;exitDy=0;entryX=0.145;entryY=0.145;entryDx=0;entryDy=0;entryPerimeter=0;verticalAlign=middle;horizontal=1;endArrow=none;endFill=0;dashed=1;" edge="1" parent="1" source="-_HJGpFa1Wv5-3IW6Odz-25" target="-_HJGpFa1Wv5-3IW6Odz-1">
          <mxGeometry relative="1" as="geometry">
            <mxPoint x="250" y="70" as="sourcePoint" />
            <mxPoint x="277" y="99" as="targetPoint" />
          </mxGeometry>
        </mxCell>
      </root>
    </mxGraphModel>
  </diagram>
</mxfile>
